# xmcd
#
# Track frame offsets: 
#        150
#        12592
#        24543
#        37906
#        52325
#        69538
#        82519
#        96129
#        109234
#        121794
#        138105
#        152062
#        166663
#        178485
#        192953
#        204499
#        217707
#        231283
#        244827
#
# Disc length: 3629 seconds
#
# Revision: 0
# Processed by: cddbd v1.5.2PL0 Copyright (c) Steve Scherf et al.
# Submitted via: ExactAudioCopy v0.95b4
#
DISCID=f90e2b13
DTITLE=Stevie Wonder - Looking Back - Sides 4-6
DYEAR=1977
DGENRE=Soul
TTITLE0=Shoo Be Doo Be Doo Da Day
TTITLE1=You Met Your Match
TTITLE2=I'd Be a Fool Right Now
TTITLE3=Alfie
TTITLE4=More Than a Dream
TTITLE5=For Once in My Life
TTITLE6=Angie Girl
TTITLE7=My Cherie Amour
TTITLE8=Don't Know Why I Love You
TTITLE9=If I Ruled the World
TTITLE10=Yester-Me, Yester-You, Yesterday
TTITLE11=Never Had a Dream Come True
TTITLE12=Signed, Sealed, Delivered
TTITLE13=Heaven Help Us All
TTITLE14=I Gotta Have a Song
TTITLE15=Never Dreamed You'd Leave in Summer
TTITLE16=If You Really Loved Me
TTITLE17=Something Out of the Blue
TTITLE18=Do Yourself a Favor
EXTD=
EXTT0=
EXTT1=
EXTT2=
EXTT3=
EXTT4=
EXTT5=
EXTT6=
EXTT7=
EXTT8=
EXTT9=
EXTT10=
EXTT11=
EXTT12=
EXTT13=
EXTT14=
EXTT15=
EXTT16=
EXTT17=
EXTT18=
PLAYORDER=
